<svg xmlns="http://www.w3.org/2000/svg" width="360" height="220" viewBox="0 0 360 220">
  <defs>
    <linearGradient id="bg" x1="0" y1="0" x2="1" y2="1">
      <stop offset="0" stop-color="#ffb000"/>
      <stop offset="1" stop-color="#d95120"/>
    </linearGradient>
    <linearGradient id="gem" x1="0" y1="0" x2="1" y2="1">
      <stop offset="0" stop-color="#fff7aa"/>
      <stop offset="1" stop-color="#ff7a00"/>
    </linearGradient>
  </defs>
  <rect width="360" height="220" rx="22" fill="url(#bg)"/>
  <path d="M0 158 58 96l44 35 54-82 64 68 54-30 86 86v47H0z" fill="#7f2e1d" opacity=".18"/>
  <g transform="translate(98 34)">
    <path d="M82 0 107 53 164 61 123 102 132 159 82 132 31 159 41 102 0 61 57 53z" fill="#fff" opacity=".92"/>
    <path d="M82 23 99 60 139 66 110 95 117 135 82 116 46 135 53 95 24 66 64 60z" fill="url(#gem)"/>
  </g>
  <rect x="24" y="24" width="70" height="70" rx="12" fill="#fff" opacity=".18"/>
  <rect x="267" y="130" width="54" height="54" rx="9" fill="#fff" opacity=".15"/>
</svg>
